<svg width="663" height="94" viewBox="0 0 663 94" fill="none" xmlns="http://www.w3.org/2000/svg">
<mask id="path-1-inside-1_261_1079" fill="white">
<path d="M56.2102 8.52539L63.3772 8.4248L63.2844 66.2461L63.3332 66.9736C63.6046 69.5457 63.5212 71.1396 63.4338 73.7236L71.2854 73.7002C71.8701 79.5077 71.2702 87.4463 71.4084 93.4561C64.0397 93.3792 56.6707 93.3794 49.302 93.4521L49.3049 87.1436L42.8215 87L42.7248 80.458C31.5107 80.6602 19.2583 80.4461 8.01098 80.3652L7.99438 74.0918L7.90161 72.5713L0.324459 72.5068L0.307857 66.3799C0.196638 59.2942 0.193679 52.204 0.300045 45.1143C-0.307789 34.1704 0.211578 19.7406 0.119381 8.45703L7.427 8.54199L7.43481 0.0166016L56.3245 0L56.2102 8.52539ZM42.7063 19.9824C35.4251 19.9946 28.1439 20.0547 20.8635 20.168L20.6428 60.126H42.4895L42.7063 19.9824Z"/>
</mask>
<path d="M56.2102 8.52539L63.3772 8.4248L63.2844 66.2461L63.3332 66.9736C63.6046 69.5457 63.5212 71.1396 63.4338 73.7236L71.2854 73.7002C71.8701 79.5077 71.2702 87.4463 71.4084 93.4561C64.0397 93.3792 56.6707 93.3794 49.302 93.4521L49.3049 87.1436L42.8215 87L42.7248 80.458C31.5107 80.6602 19.2583 80.4461 8.01098 80.3652L7.99438 74.0918L7.90161 72.5713L0.324459 72.5068L0.307857 66.3799C0.196638 59.2942 0.193679 52.204 0.300045 45.1143C-0.307789 34.1704 0.211578 19.7406 0.119381 8.45703L7.427 8.54199L7.43481 0.0166016L56.3245 0L56.2102 8.52539ZM42.7063 19.9824C35.4251 19.9946 28.1439 20.0547 20.8635 20.168L20.6428 60.126H42.4895L42.7063 19.9824Z" fill="url(#paint0_linear_261_1079)"/>
<path d="M56.2102 8.52539L55.2103 8.51199L55.1965 9.53972L56.2242 9.52529L56.2102 8.52539ZM63.3772 8.4248L64.3772 8.42641L64.3788 7.41065L63.3632 7.4249L63.3772 8.4248ZM63.2844 66.2461L62.2844 66.2445L62.2844 66.2788L62.2867 66.3131L63.2844 66.2461ZM63.3332 66.9736L62.3355 67.0406L62.3368 67.0596L62.3388 67.0786L63.3332 66.9736ZM63.4338 73.7236L62.4344 73.6898L62.3994 74.7267L63.4368 74.7236L63.4338 73.7236ZM71.2854 73.7002L72.2804 73.6L72.1895 72.6975L71.2824 72.7002L71.2854 73.7002ZM71.4084 93.4561L71.398 94.456L72.432 94.4668L72.4082 93.4331L71.4084 93.4561ZM49.302 93.4521L48.302 93.4517L48.3015 94.4621L49.3119 94.4521L49.302 93.4521ZM49.3049 87.1436L50.3049 87.144L50.3054 86.1655L49.3271 86.1438L49.3049 87.1436ZM42.8215 87L41.8216 87.0148L41.8359 87.9784L42.7994 87.9998L42.8215 87ZM42.7248 80.458L43.7247 80.4432L43.7099 79.4401L42.7068 79.4582L42.7248 80.458ZM8.01098 80.3652L7.01099 80.3679L7.01361 81.3581L8.00379 81.3652L8.01098 80.3652ZM7.99438 74.0918L8.99438 74.0891L8.9943 74.06L8.99252 74.0309L7.99438 74.0918ZM7.90161 72.5713L8.89975 72.5104L8.84294 71.5793L7.91011 71.5713L7.90161 72.5713ZM0.324459 72.5068L-0.675537 72.5095L-0.672858 73.4984L0.315953 73.5068L0.324459 72.5068ZM0.307857 66.3799L1.30794 66.3772L1.30773 66.3642L0.307857 66.3799ZM0.300045 45.1143L1.29993 45.1293L1.30046 45.094L1.29851 45.0588L0.300045 45.1143ZM0.119381 8.45703L0.131006 7.4571L-0.88892 7.44524L-0.880586 8.4652L0.119381 8.45703ZM7.427 8.54199L7.41537 9.54192L8.42607 9.55368L8.427 8.54291L7.427 8.54199ZM7.43481 0.0166016L7.43447 -0.983398L6.43573 -0.983059L6.43481 0.0156852L7.43481 0.0166016ZM56.3245 0L57.3244 0.0134009L57.338 -1.00034L56.3241 -1L56.3245 0ZM42.7063 19.9824L43.7063 19.9878L43.7117 18.9807L42.7046 18.9824L42.7063 19.9824ZM20.8635 20.168L20.848 19.1681L19.8689 19.1833L19.8635 20.1624L20.8635 20.168ZM20.6428 60.126L19.6428 60.1205L19.6373 61.126H20.6428V60.126ZM42.4895 60.126V61.126H43.4841L43.4895 60.1314L42.4895 60.126ZM56.2102 8.52539L56.2242 9.52529L63.3912 9.42471L63.3772 8.4248L63.3632 7.4249L56.1962 7.52549L56.2102 8.52539ZM63.3772 8.4248L62.3772 8.4232L62.2844 66.2445L63.2844 66.2461L64.2844 66.2477L64.3772 8.42641L63.3772 8.4248ZM63.2844 66.2461L62.2867 66.3131L62.3355 67.0406L63.3332 66.9736L64.331 66.9067L64.2822 66.1791L63.2844 66.2461ZM63.3332 66.9736L62.3388 67.0786C62.6017 69.5707 62.5221 71.0964 62.4344 73.6898L63.4338 73.7236L64.4333 73.7574C64.5203 71.1828 64.6075 69.5207 64.3277 66.8687L63.3332 66.9736ZM63.4338 73.7236L63.4368 74.7236L71.2884 74.7002L71.2854 73.7002L71.2824 72.7002L63.4308 72.7236L63.4338 73.7236ZM71.2854 73.7002L70.2904 73.8004C70.5763 76.6393 70.5741 80.0228 70.5145 83.4851C70.4553 86.9221 70.3389 90.4474 70.4087 93.4791L71.4084 93.4561L72.4082 93.4331C72.3397 90.455 72.4541 87.0062 72.5142 83.5195C72.5738 80.0582 72.5793 76.5686 72.2804 73.6L71.2854 73.7002ZM71.4084 93.4561L71.4189 92.4561C64.0432 92.3792 56.6674 92.3793 49.2921 92.4522L49.302 93.4521L49.3119 94.4521C56.674 94.3794 64.0363 94.3792 71.398 94.456L71.4084 93.4561ZM49.302 93.4521L50.302 93.4526L50.3049 87.144L49.3049 87.1436L48.3049 87.1431L48.302 93.4517L49.302 93.4521ZM49.3049 87.1436L49.3271 86.1438L42.8437 86.0002L42.8215 87L42.7994 87.9998L49.2828 88.1433L49.3049 87.1436ZM42.8215 87L43.8214 86.9852L43.7247 80.4432L42.7248 80.458L41.725 80.4728L41.8216 87.0148L42.8215 87ZM42.7248 80.458L42.7068 79.4582C31.5095 79.6601 19.2805 79.4463 8.01817 79.3653L8.01098 80.3652L8.00379 81.3652C19.236 81.446 31.512 81.6604 42.7429 81.4578L42.7248 80.458ZM8.01098 80.3652L9.01098 80.3626L8.99438 74.0891L7.99438 74.0918L6.99438 74.0944L7.01099 80.3679L8.01098 80.3652ZM7.99438 74.0918L8.99252 74.0309L8.89975 72.5104L7.90161 72.5713L6.90346 72.6322L6.99624 74.1527L7.99438 74.0918ZM7.90161 72.5713L7.91011 71.5713L0.332965 71.5069L0.324459 72.5068L0.315953 73.5068L7.8931 73.5713L7.90161 72.5713ZM0.324459 72.5068L1.32446 72.5041L1.30785 66.3772L0.307857 66.3799L-0.692139 66.3826L-0.675537 72.5095L0.324459 72.5068ZM0.307857 66.3799L1.30773 66.3642C1.19668 59.2887 1.19372 52.2087 1.29993 45.1293L0.300045 45.1143L-0.699843 45.0993C-0.806363 52.1992 -0.803398 59.2997 -0.692019 66.3956L0.307857 66.3799ZM0.300045 45.1143L1.29851 45.0588C0.692079 34.1403 1.21218 19.8096 1.11935 8.44886L0.119381 8.45703L-0.880586 8.4652C-0.789019 19.6716 -1.30766 34.2006 -0.698416 45.1697L0.300045 45.1143ZM0.119381 8.45703L0.107755 9.45696L7.41537 9.54192L7.427 8.54199L7.43862 7.54206L0.131006 7.4571L0.119381 8.45703ZM7.427 8.54199L8.427 8.54291L8.43481 0.0175179L7.43481 0.0166016L6.43481 0.0156852L6.427 8.54108L7.427 8.54199ZM7.43481 0.0166016L7.43515 1.0166L56.3248 1L56.3245 0L56.3241 -1L7.43447 -0.983398L7.43481 0.0166016ZM56.3245 0L55.3245 -0.0134009L55.2103 8.51199L56.2102 8.52539L57.2101 8.53879L57.3244 0.0134009L56.3245 0ZM42.7063 19.9824L42.7046 18.9824C35.419 18.9946 28.1332 19.0548 20.848 19.1681L20.8635 20.168L20.8791 21.1678C28.1546 21.0547 35.4312 20.9945 42.708 20.9824L42.7063 19.9824ZM20.8635 20.168L19.8635 20.1624L19.6428 60.1205L20.6428 60.126L21.6428 60.1315L21.8635 20.1735L20.8635 20.168ZM20.6428 60.126V61.126H42.4895V60.126V59.126H20.6428V60.126ZM42.4895 60.126L43.4895 60.1314L43.7063 19.9878L42.7063 19.9824L41.7063 19.977L41.4895 60.1206L42.4895 60.126Z" fill="black" mask="url(#path-1-inside-1_261_1079)"/>
<path d="M7.98987 73.1899C18.0784 73.1696 42.4999 73 42.4999 73V79.5006C31.2858 79.7028 19.2541 79.5435 8.00686 79.4626L7.98987 73.1899Z" fill="#1E6ABC"/>
<path d="M0.303223 65.477L7.89766 65.4766V70.6782H8.86116L8.99567 73.5H7.99567L7.89766 71.6689L0.320206 71.6042L0.303223 65.477Z" fill="#1E6ABC"/>
<path d="M71.2812 72.7979C71.866 78.6055 71.2655 86.5445 71.4038 92.5544C64.035 92.4775 56.6663 92.4775 49.2975 92.5503L49.3003 86.2412L49.4993 86.1158L71.1478 86.0835C71.1077 81.6549 71.1522 77.2223 71.2812 72.7979Z" fill="#1E6ABC"/>
<path d="M43.4999 79.5H49.9999V86.1684H43.4999V79.5Z" fill="#1E6ABC"/>
<path d="M246.069 51.4619H245.353C245.214 51.4618 245.014 51.4613 244.768 51.4609C244.277 51.4601 243.604 51.4582 242.876 51.4551C241.659 51.4499 240.296 51.4369 239.378 51.4199L239.37 43.9609V43.4619H232.367L232.37 43.9648C232.423 53.8433 232.629 64.3611 232.263 74.1787V74.1943L232.229 79.9355L212.577 80.0439L212.55 74.1621V74.1553C212.121 50.1041 212.538 24.7467 212.546 0.549805C219.229 0.50979 225.912 0.516836 232.595 0.572266L232.602 8.61035V9.11816L233.11 9.11035L239.6 9.00488L239.583 17.1592L239.581 17.6592L240.081 17.6602L246.716 17.6738L246.642 25.6602L246.637 26.166L247.143 26.165L252.885 26.1572L253.39 26.1562L253.384 25.6514C253.286 17.2917 253.241 8.93569 253.249 0.576172C259.675 0.448388 266.366 0.521679 272.83 0.514648L272.902 22.5684V22.585C273.065 27.1881 273.13 32.1164 273.032 36.7275C272.878 43.9525 273.031 51.3253 273.093 58.667C273.155 65.8565 273.127 73.0238 272.649 80.0361C266.199 80.0813 259.749 80.0235 253.301 79.8555C253.251 77.9729 253.174 76.0014 253.182 74.1758C253.212 69.674 253.114 65.0031 253.077 60.499L253.073 60.0146L252.588 60.0029C250.508 59.9538 248.125 60.0398 246 60.0879C245.894 57.9379 245.941 56.6102 246.068 54.3389L246.069 54.3252V51.4619Z" fill="url(#paint1_linear_261_1079)" stroke="black"/>
<path d="M273.236 74.1973C273.538 57.745 272.575 38.6759 273.402 22.5674C273.565 27.1779 273.63 32.1161 273.532 36.7387C273.225 51.1689 274.14 66.1733 273.118 80.5347C266.35 80.5873 259.581 80.5266 252.815 80.3446C252.768 78.3346 252.673 76.1628 252.682 74.173L273.236 74.1973Z" fill="#1E6ABC"/>
<path d="M212.051 74.1641L232.763 74.1964L232.726 80.4328L212.08 80.546L212.051 74.1641Z" fill="#1E6ABC"/>
<path d="M246.362 53.2698L253.458 53.1768V59.5587H246.319L246.362 53.2698Z" fill="#1E6ABC"/>
<path d="M239.87 43.9619H246.661C246.67 45.5675 246.542 50.9619 246.542 50.9619C246.542 50.9619 241.604 51.0104 239.87 50.9619C239.743 48.9276 239.905 46.0164 239.87 43.9619Z" fill="#1E6ABC"/>
<path d="M231.87 36.9619H239.87V42.9619H231.87L231.87 36.9619Z" fill="#405E87"/>
<mask id="path-13-inside-2_261_1079" fill="white">
<path d="M525.988 8.51758L533.114 8.37988C533.591 15.9063 533.199 26.6317 533.183 34.502L533.098 80.2275C526.162 80.4702 519.221 80.5427 512.285 80.4375L512.245 74.1934L512.253 50.2988L496.039 50.2227L496.023 74.0391L496.039 80.2354C489.156 80.3931 482.272 80.4736 475.389 80.4736L475.373 74.0879C475.09 52.3336 475.414 30.2517 475.236 8.43262L482.236 8.41602L482.228 0L525.991 0L525.988 8.51758ZM512.293 13.8115C506.793 13.7023 501.293 13.6905 495.793 13.7754C495.797 15.8825 495.898 18.01 495.975 20.1211C495.983 21.4436 496.076 24.0523 495.967 25.2656C495.995 26.6932 495.87 28.8199 496.452 30.0332C498.326 30.195 510.997 30.4059 512.435 29.9531C512.087 27.1544 512.225 22.8345 512.229 19.9023L512.293 13.8115Z"/>
</mask>
<path d="M525.988 8.51758L533.114 8.37988C533.591 15.9063 533.199 26.6317 533.183 34.502L533.098 80.2275C526.162 80.4702 519.221 80.5427 512.285 80.4375L512.245 74.1934L512.253 50.2988L496.039 50.2227L496.023 74.0391L496.039 80.2354C489.156 80.3931 482.272 80.4736 475.389 80.4736L475.373 74.0879C475.09 52.3336 475.414 30.2517 475.236 8.43262L482.236 8.41602L482.228 0L525.991 0L525.988 8.51758ZM512.293 13.8115C506.793 13.7023 501.293 13.6905 495.793 13.7754C495.797 15.8825 495.898 18.01 495.975 20.1211C495.983 21.4436 496.076 24.0523 495.967 25.2656C495.995 26.6932 495.87 28.8199 496.452 30.0332C498.326 30.195 510.997 30.4059 512.435 29.9531C512.087 27.1544 512.225 22.8345 512.229 19.9023L512.293 13.8115Z" fill="url(#paint2_linear_261_1079)"/>
<path d="M525.988 8.51758L524.988 8.51712L524.987 9.5371L526.007 9.51739L525.988 8.51758ZM533.114 8.37988L534.112 8.3166L534.051 7.36158L533.094 7.38007L533.114 8.37988ZM533.183 34.502L532.183 34.4999L532.183 34.5001L533.183 34.502ZM533.098 80.2275L533.133 81.2269L534.096 81.1932L534.098 80.2294L533.098 80.2275ZM512.285 80.4375L511.285 80.4439L511.292 81.4225L512.27 81.4374L512.285 80.4375ZM512.245 74.1934L511.245 74.193L511.245 74.1998L512.245 74.1934ZM512.253 50.2988L513.253 50.2992L513.253 49.3035L512.258 49.2988L512.253 50.2988ZM496.039 50.2227L496.044 49.2227L495.04 49.2179L495.039 50.222L496.039 50.2227ZM496.023 74.0391L495.023 74.0384L495.023 74.0417L496.023 74.0391ZM496.039 80.2354L496.062 81.2351L497.042 81.2126L497.039 80.2327L496.039 80.2354ZM475.389 80.4736L474.389 80.4761L474.391 81.4736H475.389V80.4736ZM475.373 74.0879L476.373 74.0854L476.373 74.0749L475.373 74.0879ZM475.236 8.43262L475.233 7.43262L474.227 7.43501L474.236 8.44077L475.236 8.43262ZM482.236 8.41602L482.238 9.41601L483.237 9.41364L483.236 8.41509L482.236 8.41602ZM482.228 0V-1H481.227L481.228 0.000928289L482.228 0ZM525.991 0L526.991 0.00045861L526.992 -1H525.991V0ZM512.293 13.8115L513.293 13.8221L513.304 12.8314L512.313 12.8117L512.293 13.8115ZM495.793 13.7754L495.778 12.7755L494.791 12.7907L494.793 13.7773L495.793 13.7754ZM495.975 20.1211L496.975 20.115L496.975 20.0998L496.974 20.0847L495.975 20.1211ZM495.967 25.2656L494.971 25.176L494.966 25.2306L494.967 25.2854L495.967 25.2656ZM496.452 30.0332L495.551 30.4659L495.798 30.9804L496.366 31.0295L496.452 30.0332ZM512.435 29.9531L512.735 30.9069L513.53 30.6566L513.427 29.8298L512.435 29.9531ZM512.229 19.9023L511.229 19.8918L511.229 19.901L512.229 19.9023ZM525.988 8.51758L526.007 9.51739L533.133 9.3797L533.114 8.37988L533.094 7.38007L525.968 7.51776L525.988 8.51758ZM533.114 8.37988L532.116 8.44316C532.59 15.927 532.199 26.5673 532.183 34.4999L533.183 34.502L534.183 34.504C534.199 26.6961 534.591 15.8856 534.112 8.3166L533.114 8.37988ZM533.183 34.502L532.183 34.5001L532.098 80.2257L533.098 80.2275L534.098 80.2294L534.183 34.5038L533.183 34.502ZM533.098 80.2275L533.063 79.2281C526.143 79.4702 519.22 79.5425 512.301 79.4376L512.285 80.4375L512.27 81.4374C519.223 81.5428 526.181 81.4702 533.133 81.2269L533.098 80.2275ZM512.285 80.4375L513.285 80.4311L513.245 74.187L512.245 74.1934L511.245 74.1998L511.285 80.4439L512.285 80.4375ZM512.245 74.1934L513.245 74.1937L513.253 50.2992L512.253 50.2988L511.253 50.2985L511.245 74.193L512.245 74.1934ZM512.253 50.2988L512.258 49.2988L496.044 49.2227L496.039 50.2227L496.035 51.2226L512.248 51.2988L512.253 50.2988ZM496.039 50.2227L495.039 50.222L495.023 74.0384L496.023 74.0391L497.023 74.0398L497.039 50.2234L496.039 50.2227ZM496.023 74.0391L495.023 74.0417L495.039 80.238L496.039 80.2354L497.039 80.2327L497.023 74.0364L496.023 74.0391ZM496.039 80.2354L496.016 79.2356C489.14 79.3932 482.265 79.4736 475.389 79.4736V80.4736V81.4736C482.28 81.4736 489.171 81.393 496.062 81.2351L496.039 80.2354ZM475.389 80.4736L476.389 80.4712L476.373 74.0854L475.373 74.0879L474.373 74.0903L474.389 80.4761L475.389 80.4736ZM475.373 74.0879L476.373 74.0749C476.09 52.2948 476.414 30.3031 476.236 8.42446L475.236 8.43262L474.236 8.44077C474.413 30.2002 474.091 52.3723 474.373 74.1009L475.373 74.0879ZM475.236 8.43262L475.238 9.43261L482.238 9.41601L482.236 8.41602L482.233 7.41602L475.233 7.43262L475.236 8.43262ZM482.236 8.41602L483.236 8.41509L483.228 -0.000928289L482.228 0L481.228 0.000928289L481.236 8.41694L482.236 8.41602ZM482.228 0V1H525.991V0V-1H482.228V0ZM525.991 0L524.991 -0.00045861L524.988 8.51712L525.988 8.51758L526.988 8.51804L526.991 0.00045861L525.991 0ZM512.293 13.8115L512.313 12.8117C506.801 12.7023 501.29 12.6904 495.778 12.7755L495.793 13.7754L495.809 14.7753C501.297 14.6905 506.785 14.7024 512.273 14.8113L512.293 13.8115ZM495.793 13.7754L494.793 13.7773C494.797 15.907 494.899 18.0615 494.976 20.1575L495.975 20.1211L496.974 20.0847C496.897 17.9584 496.797 15.858 496.793 13.7735L495.793 13.7754ZM495.975 20.1211L494.975 20.1272C494.983 21.5271 495.075 24.0261 494.971 25.176L495.967 25.2656L496.963 25.3553C497.078 24.0786 496.982 21.3601 496.975 20.115L495.975 20.1211ZM495.967 25.2656L494.967 25.2854C494.98 25.922 494.958 26.91 495.003 27.7819C495.049 28.6608 495.168 29.6679 495.551 30.4659L496.452 30.0332L497.354 29.6006C497.155 29.1853 497.045 28.5223 497.001 27.6776C496.956 26.826 496.983 26.0368 496.967 25.2458L495.967 25.2656ZM496.452 30.0332L496.366 31.0295C497.351 31.1145 501.03 31.2073 504.603 31.2236C506.398 31.2318 508.188 31.2208 509.624 31.179C510.34 31.1581 510.978 31.1292 511.488 31.0903C511.958 31.0544 512.428 31.0036 512.735 30.9069L512.435 29.9531L512.134 28.9993C512.138 28.9982 512.122 29.0033 512.077 29.012C512.035 29.0203 511.978 29.0296 511.905 29.0394C511.759 29.0592 511.569 29.0783 511.336 29.0961C510.871 29.1316 510.268 29.1593 509.565 29.1798C508.162 29.2207 506.397 29.2318 504.612 29.2236C501.021 29.2072 497.427 29.1136 496.538 29.0369L496.452 30.0332ZM512.435 29.9531L513.427 29.8298C513.09 27.1135 513.225 22.9034 513.229 19.9037L512.229 19.9023L511.229 19.901C511.225 22.7656 511.084 27.1954 511.442 30.0765L512.435 29.9531ZM512.229 19.9023L513.229 19.9129L513.293 13.8221L512.293 13.8115L511.293 13.8009L511.229 19.8918L512.229 19.9023Z" fill="black" mask="url(#path-13-inside-2_261_1079)"/>
<path d="M533.114 8.38086C533.591 15.9074 533.199 26.6329 533.182 34.5032L533.097 80.2284C526.161 80.471 519.221 80.5438 512.285 80.4387L512.245 74.1942C519.132 74.0567 526.024 74.0527 532.911 74.17L532.855 33.9168C532.847 26.188 532.612 15.968 533.114 8.38086Z" fill="#1E6ABC"/>
<path d="M496.023 74.04L496.039 80.236C489.156 80.3937 482.272 80.4746 475.389 80.4746L475.373 74.0886L496.023 74.04Z" fill="#1E6ABC"/>
<path d="M496.011 44.1165L512.257 44.1084L512.253 50.3003L496.039 50.2235L496.011 44.1165Z" fill="#1E6ABC"/>
<mask id="path-18-inside-3_261_1079" fill="white">
<path d="M196.495 8.51758L203.621 8.37988C204.098 15.9063 203.706 26.6317 203.69 34.502L203.605 80.2275C196.669 80.4702 189.729 80.5427 182.793 80.4375L182.753 74.1934L182.761 50.2988L166.547 50.2227L166.53 74.0391L166.547 80.2354C159.663 80.3931 152.78 80.4736 145.896 80.4736L145.881 74.0879C145.598 52.3336 145.921 30.2517 145.743 8.43262L152.743 8.41602L152.735 0L196.499 0L196.495 8.51758ZM182.801 13.8115C177.301 13.7023 171.801 13.6905 166.301 13.7754C166.305 15.8825 166.405 18.01 166.482 20.1211C166.49 21.4436 166.584 24.0523 166.474 25.2656C166.503 26.6932 166.378 28.8199 166.96 30.0332C168.834 30.195 181.505 30.4059 182.942 29.9531C182.594 27.1544 182.732 22.8345 182.736 19.9023L182.801 13.8115Z"/>
</mask>
<path d="M196.495 8.51758L203.621 8.37988C204.098 15.9063 203.706 26.6317 203.69 34.502L203.605 80.2275C196.669 80.4702 189.729 80.5427 182.793 80.4375L182.753 74.1934L182.761 50.2988L166.547 50.2227L166.53 74.0391L166.547 80.2354C159.663 80.3931 152.78 80.4736 145.896 80.4736L145.881 74.0879C145.598 52.3336 145.921 30.2517 145.743 8.43262L152.743 8.41602L152.735 0L196.499 0L196.495 8.51758ZM182.801 13.8115C177.301 13.7023 171.801 13.6905 166.301 13.7754C166.305 15.8825 166.405 18.01 166.482 20.1211C166.49 21.4436 166.584 24.0523 166.474 25.2656C166.503 26.6932 166.378 28.8199 166.96 30.0332C168.834 30.195 181.505 30.4059 182.942 29.9531C182.594 27.1544 182.732 22.8345 182.736 19.9023L182.801 13.8115Z" fill="url(#paint3_linear_261_1079)"/>
<path d="M196.495 8.51758L195.495 8.51712L195.495 9.5371L196.514 9.51739L196.495 8.51758ZM203.621 8.37988L204.619 8.3166L204.558 7.36158L203.602 7.38007L203.621 8.37988ZM203.69 34.502L202.69 34.4999L202.69 34.5001L203.69 34.502ZM203.605 80.2275L203.64 81.2269L204.604 81.1932L204.605 80.2294L203.605 80.2275ZM182.793 80.4375L181.793 80.4439L181.799 81.4225L182.778 81.4374L182.793 80.4375ZM182.753 74.1934L181.753 74.193L181.753 74.1998L182.753 74.1934ZM182.761 50.2988L183.761 50.2992L183.761 49.3035L182.765 49.2988L182.761 50.2988ZM166.547 50.2227L166.551 49.2227L165.547 49.2179L165.547 50.222L166.547 50.2227ZM166.53 74.0391L165.53 74.0384L165.53 74.0417L166.53 74.0391ZM166.547 80.2354L166.57 81.2351L167.549 81.2126L167.547 80.2327L166.547 80.2354ZM145.896 80.4736L144.896 80.4761L144.899 81.4736H145.896V80.4736ZM145.881 74.0879L146.881 74.0854L146.881 74.0749L145.881 74.0879ZM145.743 8.43262L145.741 7.43262L144.735 7.43501L144.743 8.44077L145.743 8.43262ZM152.743 8.41602L152.745 9.41601L153.744 9.41364L153.743 8.41509L152.743 8.41602ZM152.735 0V-1H151.734L151.735 0.000928289L152.735 0ZM196.499 0L197.499 0.00045861L197.499 -1H196.499V0ZM182.801 13.8115L183.801 13.8221L183.811 12.8314L182.821 12.8117L182.801 13.8115ZM166.301 13.7754L166.285 12.7755L165.299 12.7907L165.301 13.7773L166.301 13.7754ZM166.482 20.1211L167.482 20.115L167.482 20.0998L167.482 20.0847L166.482 20.1211ZM166.474 25.2656L165.479 25.176L165.474 25.2306L165.475 25.2854L166.474 25.2656ZM166.96 30.0332L166.058 30.4659L166.305 30.9804L166.874 31.0295L166.96 30.0332ZM182.942 29.9531L183.243 30.9069L184.037 30.6566L183.935 29.8298L182.942 29.9531ZM182.736 19.9023L181.736 19.8918L181.736 19.901L182.736 19.9023ZM196.495 8.51758L196.514 9.51739L203.64 9.3797L203.621 8.37988L203.602 7.38007L196.476 7.51776L196.495 8.51758ZM203.621 8.37988L202.623 8.44316C203.097 15.927 202.707 26.5673 202.69 34.4999L203.69 34.502L204.69 34.504C204.706 26.6961 205.099 15.8856 204.619 8.3166L203.621 8.37988ZM203.69 34.502L202.69 34.5001L202.605 80.2257L203.605 80.2275L204.605 80.2294L204.69 34.5038L203.69 34.502ZM203.605 80.2275L203.57 79.2281C196.651 79.4702 189.727 79.5425 182.808 79.4376L182.793 80.4375L182.778 81.4374C189.731 81.5428 196.688 81.4702 203.64 81.2269L203.605 80.2275ZM182.793 80.4375L183.793 80.4311L183.753 74.187L182.753 74.1934L181.753 74.1998L181.793 80.4439L182.793 80.4375ZM182.753 74.1934L183.753 74.1937L183.761 50.2992L182.761 50.2988L181.761 50.2985L181.753 74.193L182.753 74.1934ZM182.761 50.2988L182.765 49.2988L166.551 49.2227L166.547 50.2227L166.542 51.2226L182.756 51.2988L182.761 50.2988ZM166.547 50.2227L165.547 50.222L165.53 74.0384L166.53 74.0391L167.53 74.0398L167.547 50.2234L166.547 50.2227ZM166.53 74.0391L165.53 74.0417L165.547 80.238L166.547 80.2354L167.547 80.2327L167.53 74.0364L166.53 74.0391ZM166.547 80.2354L166.524 79.2356C159.648 79.3932 152.772 79.4736 145.896 79.4736V80.4736V81.4736C152.788 81.4736 159.679 81.393 166.57 81.2351L166.547 80.2354ZM145.896 80.4736L146.896 80.4712L146.881 74.0854L145.881 74.0879L144.881 74.0903L144.896 80.4761L145.896 80.4736ZM145.881 74.0879L146.881 74.0749C146.597 52.2948 146.921 30.3031 146.743 8.42446L145.743 8.43262L144.743 8.44077C144.921 30.2002 144.598 52.3723 144.881 74.1009L145.881 74.0879ZM145.743 8.43262L145.745 9.43261L152.745 9.41601L152.743 8.41602L152.741 7.41602L145.741 7.43262L145.743 8.43262ZM152.743 8.41602L153.743 8.41509L153.735 -0.000928289L152.735 0L151.735 0.000928289L151.743 8.41694L152.743 8.41602ZM152.735 0V1H196.499V0V-1H152.735V0ZM196.499 0L195.499 -0.00045861L195.495 8.51712L196.495 8.51758L197.495 8.51804L197.499 0.00045861L196.499 0ZM182.801 13.8115L182.821 12.8117C177.309 12.7023 171.797 12.6904 166.285 12.7755L166.301 13.7754L166.316 14.7753C171.804 14.6905 177.293 14.7024 182.781 14.8113L182.801 13.8115ZM166.301 13.7754L165.301 13.7773C165.305 15.907 165.407 18.0615 165.483 20.1575L166.482 20.1211L167.482 20.0847C167.404 17.9584 167.305 15.858 167.301 13.7735L166.301 13.7754ZM166.482 20.1211L165.482 20.1272C165.491 21.5271 165.582 24.0261 165.479 25.176L166.474 25.2656L167.47 25.3553C167.585 24.0786 167.49 21.3601 167.482 20.115L166.482 20.1211ZM166.474 25.2656L165.475 25.2854C165.487 25.922 165.465 26.91 165.511 27.7819C165.557 28.6608 165.675 29.6679 166.058 30.4659L166.96 30.0332L167.861 29.6006C167.662 29.1853 167.552 28.5223 167.508 27.6776C167.464 26.826 167.49 26.0368 167.474 25.2458L166.474 25.2656ZM166.96 30.0332L166.874 31.0295C167.859 31.1145 171.537 31.2073 175.11 31.2236C176.906 31.2318 178.696 31.2208 180.131 31.179C180.848 31.1581 181.486 31.1292 181.996 31.0903C182.466 31.0544 182.936 31.0036 183.243 30.9069L182.942 29.9531L182.642 28.9993C182.645 28.9982 182.629 29.0033 182.584 29.012C182.542 29.0203 182.485 29.0296 182.412 29.0394C182.266 29.0592 182.076 29.0783 181.843 29.0961C181.378 29.1316 180.775 29.1593 180.073 29.1798C178.67 29.2207 176.905 29.2318 175.119 29.2236C171.529 29.2072 167.935 29.1136 167.046 29.0369L166.96 30.0332ZM182.942 29.9531L183.935 29.8298C183.597 27.1135 183.732 22.9034 183.736 19.9037L182.736 19.9023L181.736 19.901C181.732 22.7656 181.592 27.1954 181.95 30.0765L182.942 29.9531ZM182.736 19.9023L183.736 19.9129L183.801 13.8221L182.801 13.8115L181.801 13.8009L181.736 19.8918L182.736 19.9023Z" fill="black" mask="url(#path-18-inside-3_261_1079)"/>
<path d="M203.621 8.38086C204.098 15.9074 203.706 26.6329 203.69 34.5032L203.605 80.2284C196.669 80.471 189.729 80.5438 182.793 80.4387L182.752 74.1942C189.64 74.0567 196.531 74.0527 203.419 74.17L203.362 33.9168C203.354 26.188 203.12 15.968 203.621 8.38086Z" fill="#1E6ABC"/>
<path d="M166.531 74.04L166.547 80.236C159.663 80.3937 152.78 80.4746 145.896 80.4746L145.88 74.0886L166.531 74.04Z" fill="#1E6ABC"/>
<path d="M166.519 44.1165L182.765 44.1084L182.761 50.3003L166.547 50.2235L166.519 44.1165Z" fill="#1E6ABC"/>
<mask id="path-23-inside-4_261_1079" fill="white">
<path d="M459.954 0.0244141L459.926 8.57812L467.093 8.43652L467.161 38.9229H460.007V47.4561H467.161C467.302 56.3536 467.206 65.2148 467.17 74.1123L467.181 80.2715C460.436 80.6395 453.306 80.4696 446.519 80.417L446.402 74.1367C446.046 67.1199 446.349 57.6238 446.312 50.3643L430.358 50.2549L430.374 74.1895L430.362 80.2598C423.434 80.4903 416.506 80.5588 409.578 80.4658L409.695 74.209L409.716 0L459.954 0.0244141ZM446.401 13.8047C441.047 13.7198 435.696 13.7071 430.342 13.7637L430.402 20.0205L430.358 24.1016L430.398 30.2285C433.472 30.2407 443.336 30.4593 445.84 30.0791C446.426 28.425 446.296 27.1467 446.301 25.3955V20.0371C446.402 18.0514 446.377 15.8106 446.401 13.8047Z"/>
</mask>
<path d="M459.954 0.0244141L459.926 8.57812L467.093 8.43652L467.161 38.9229H460.007V47.4561H467.161C467.302 56.3536 467.206 65.2148 467.17 74.1123L467.181 80.2715C460.436 80.6395 453.306 80.4696 446.519 80.417L446.402 74.1367C446.046 67.1199 446.349 57.6238 446.312 50.3643L430.358 50.2549L430.374 74.1895L430.362 80.2598C423.434 80.4903 416.506 80.5588 409.578 80.4658L409.695 74.209L409.716 0L459.954 0.0244141ZM446.401 13.8047C441.047 13.7198 435.696 13.7071 430.342 13.7637L430.402 20.0205L430.358 24.1016L430.398 30.2285C433.472 30.2407 443.336 30.4593 445.84 30.0791C446.426 28.425 446.296 27.1467 446.301 25.3955V20.0371C446.402 18.0514 446.377 15.8106 446.401 13.8047Z" fill="url(#paint4_linear_261_1079)"/>
<path d="M459.954 0.0244141L460.954 0.0277249L460.957 -0.975098L459.954 -0.975586L459.954 0.0244141ZM459.926 8.57812L458.926 8.57481L458.922 9.59814L459.945 9.57793L459.926 8.57812ZM467.093 8.43652L468.093 8.43428L468.09 7.41662L467.073 7.43672L467.093 8.43652ZM467.161 38.9229V39.9229H468.163L468.161 38.9206L467.161 38.9229ZM460.007 38.9229V37.9229H459.007V38.9229H460.007ZM460.007 47.4561H459.007V48.4561H460.007V47.4561ZM467.161 47.4561L468.161 47.4401L468.145 46.4561H467.161V47.4561ZM467.17 74.1123L466.17 74.1082L466.17 74.1142L467.17 74.1123ZM467.181 80.2715L467.236 81.27L468.183 81.2183L468.181 80.2696L467.181 80.2715ZM446.519 80.417L445.519 80.4356L445.538 81.4094L446.512 81.417L446.519 80.417ZM446.402 74.1367L447.402 74.1181L447.402 74.1021L447.401 74.0861L446.402 74.1367ZM446.312 50.3643L447.312 50.3592L447.307 49.3711L446.319 49.3643L446.312 50.3643ZM430.358 50.2549L430.365 49.2549L429.357 49.248L429.358 50.2555L430.358 50.2549ZM430.374 74.1895L431.374 74.1914L431.374 74.1888L430.374 74.1895ZM430.362 80.2598L430.395 81.2592L431.36 81.2271L431.362 80.2617L430.362 80.2598ZM409.578 80.4658L408.578 80.4471L408.559 81.4522L409.564 81.4657L409.578 80.4658ZM409.695 74.209L410.695 74.2277L410.695 74.2185L410.695 74.2093L409.695 74.209ZM409.716 0L409.716 -1L408.716 -1.00049L408.716 -0.000276352L409.716 0ZM446.401 13.8047L447.401 13.8168L447.413 12.8206L446.417 12.8048L446.401 13.8047ZM430.342 13.7637L430.331 12.7637L429.332 12.7743L429.342 13.7733L430.342 13.7637ZM430.402 20.0205L431.402 20.0313L431.402 20.0211L431.402 20.0108L430.402 20.0205ZM430.358 24.1016L429.358 24.0908L429.358 24.0994L429.358 24.1081L430.358 24.1016ZM430.398 30.2285L429.398 30.2351L429.405 31.2246L430.394 31.2285L430.398 30.2285ZM445.84 30.0791L445.99 31.0678L446.582 30.9778L446.782 30.4132L445.84 30.0791ZM446.301 25.3955L447.301 25.3978V25.3955H446.301ZM446.301 20.0371L445.302 19.9863L445.301 20.0117V20.0371H446.301ZM459.954 0.0244141L458.954 0.0211032L458.926 8.57481L459.926 8.57812L460.926 8.58144L460.954 0.0277249L459.954 0.0244141ZM459.926 8.57812L459.945 9.57793L467.112 9.43633L467.093 8.43652L467.073 7.43672L459.906 7.57832L459.926 8.57812ZM467.093 8.43652L466.093 8.43877L466.161 38.9251L467.161 38.9229L468.161 38.9206L468.093 8.43428L467.093 8.43652ZM467.161 38.9229V37.9229H460.007V38.9229V39.9229H467.161V38.9229ZM460.007 38.9229H459.007V47.4561H460.007H461.007V38.9229H460.007ZM460.007 47.4561V48.4561H467.161V47.4561V46.4561H460.007V47.4561ZM467.161 47.4561L466.161 47.472C466.302 56.3563 466.206 65.2015 466.17 74.1082L467.17 74.1123L468.17 74.1164C468.206 65.2281 468.303 56.3508 468.161 47.4401L467.161 47.4561ZM467.17 74.1123L466.17 74.1142L466.181 80.2734L467.181 80.2715L468.181 80.2696L468.17 74.1104L467.17 74.1123ZM467.181 80.2715L467.127 79.273C460.422 79.6388 453.338 79.4698 446.527 79.417L446.519 80.417L446.512 81.417C453.274 81.4694 460.45 81.6402 467.236 81.27L467.181 80.2715ZM446.519 80.417L447.519 80.3983L447.402 74.1181L446.402 74.1367L445.402 74.1554L445.519 80.4356L446.519 80.417ZM446.402 74.1367L447.401 74.0861C447.046 67.0958 447.349 57.6834 447.312 50.3592L446.312 50.3643L445.312 50.3693C445.348 57.5642 445.046 67.1439 445.403 74.1874L446.402 74.1367ZM446.312 50.3643L446.319 49.3643L430.365 49.2549L430.358 50.2549L430.351 51.2549L446.305 51.3642L446.312 50.3643ZM430.358 50.2549L429.358 50.2555L429.374 74.1901L430.374 74.1895L431.374 74.1888L431.358 50.2542L430.358 50.2549ZM430.374 74.1895L429.374 74.1875L429.362 80.2578L430.362 80.2598L431.362 80.2617L431.374 74.1914L430.374 74.1895ZM430.362 80.2598L430.329 79.2603C423.416 79.4903 416.504 79.5587 409.591 79.4659L409.578 80.4658L409.564 81.4657C416.508 81.559 423.452 81.4903 430.395 81.2592L430.362 80.2598ZM409.578 80.4658L410.578 80.4845L410.695 74.2277L409.695 74.209L408.695 74.1903L408.578 80.4471L409.578 80.4658ZM409.695 74.209L410.695 74.2093L410.716 0.000276352L409.716 0L408.716 -0.000276352L408.695 74.2087L409.695 74.209ZM409.716 0L409.715 1L459.953 1.02441L459.954 0.0244141L459.954 -0.975586L409.716 -1L409.716 0ZM446.401 13.8047L446.417 12.8048C441.053 12.7197 435.694 12.707 430.331 12.7637L430.342 13.7637L430.352 14.7636C435.698 14.7071 441.04 14.7198 446.385 14.8046L446.401 13.8047ZM430.342 13.7637L429.342 13.7733L429.402 20.0302L430.402 20.0205L431.402 20.0108L431.342 13.754L430.342 13.7637ZM430.402 20.0205L429.402 20.0097L429.358 24.0908L430.358 24.1016L431.358 24.1123L431.402 20.0313L430.402 20.0205ZM430.358 24.1016L429.358 24.1081L429.398 30.2351L430.398 30.2285L431.398 30.222L431.358 24.095L430.358 24.1016ZM430.398 30.2285L430.394 31.2285C431.845 31.2342 435.231 31.2924 438.33 31.3009C441.457 31.3095 444.643 31.2722 445.99 31.0678L445.84 30.0791L445.689 29.0904C444.533 29.2661 441.534 29.3097 438.336 29.3009C435.108 29.2921 432.025 29.2349 430.402 29.2285L430.398 30.2285ZM445.84 30.0791L446.782 30.4132C447.441 28.5552 447.297 27.0523 447.301 25.3978L446.301 25.3955L445.301 25.3932C445.296 27.241 445.411 28.2948 444.897 29.745L445.84 30.0791ZM446.301 25.3955H447.301V20.0371H446.301H445.301V25.3955H446.301ZM446.301 20.0371L447.299 20.088C447.402 18.0768 447.377 15.7881 447.401 13.8168L446.401 13.8047L445.401 13.7926C445.377 15.8331 445.402 18.0261 445.302 19.9863L446.301 20.0371Z" fill="black" mask="url(#path-23-inside-4_261_1079)"/>
<path d="M409.695 74.209C416.587 74.0958 423.482 74.0877 430.374 74.1888L430.362 80.2593C423.434 80.4898 416.506 80.5586 409.578 80.4656L409.695 74.209Z" fill="#1E6ABC"/>
<path d="M467.169 74.1123L467.181 80.2719C460.435 80.6399 453.305 80.47 446.519 80.4174L446.401 74.1366L467.169 74.1123Z" fill="#1E6ABC"/>
<path d="M430.297 44.1084L446.365 44.1286L446.313 50.365L430.358 50.2558L430.297 44.1084Z" fill="#1E6ABC"/>
<path d="M117.376 0.601562C123.89 0.568686 130.78 0.429001 137.24 0.549805C137.108 22.4999 137.404 44.6679 137.071 66.5342V66.5498L137.158 72.333L130.133 72.418L129.639 72.4238V74.1045L129.641 74.1279C129.794 75.7379 129.773 78.0124 129.791 79.833C116.776 80.4305 101.051 80.0217 87.7944 79.9111L87.8394 74.1816V74.1621L87.8384 74.1426L87.7261 72.5488L87.6919 72.0684L87.2104 72.085L80.0767 72.3184C80.0265 70.4605 80.0549 68.498 80.0493 66.627L80.0503 0.524414C86.6351 0.538526 93.5068 0.458213 100.047 0.615234L99.9019 60.248L99.9009 60.75L100.403 60.749C105.751 60.741 111.579 60.8499 116.911 60.7041L117.4 60.6914L117.397 60.2021C117.286 40.3367 117.279 20.4709 117.376 0.601562Z" fill="url(#paint5_linear_261_1079)" stroke="black"/>
<path d="M87.3394 74.1781C93.3678 74.166 99.9095 74.2913 105.893 74.1336C112.627 74.1862 123.473 74.4734 130.139 74.0811C130.308 75.8646 130.266 78.457 130.295 80.3133C117.007 80.9523 100.798 80.5115 87.2916 80.4063L87.3394 74.1781Z" fill="#1E6ABC"/>
<path d="M79.5496 66.6259L87.2468 66.4561L87.227 72.5832L79.5925 72.834C79.5209 70.8199 79.5557 68.6521 79.5496 66.6259Z" fill="#405E87"/>
<path d="M129.509 66.165L137.206 65.9951L137.186 72.1223L129.552 72.373C129.48 70.359 129.515 68.1912 129.509 66.165Z" fill="#405E87"/>
<path d="M351.853 0.619141C365.604 0.417094 379.98 0.516236 393.746 0.599609L393.75 8.61523V9.12402L394.259 9.11523C396.474 9.07762 398.792 8.97059 401.016 8.8877L400.989 25.876V25.8818L401.052 31.707C394.559 31.6084 387.889 31.6761 381.398 31.6797L381.391 25.8545L381.42 20.2529L381.422 19.7529L380.922 19.751C375.648 19.7267 370.232 19.7667 364.984 19.6455L364.472 19.6338V20.1455L364.481 43.8008L364.497 47.0029C364.522 50.4512 364.545 54.4381 364.293 57.1572L364.291 57.1816V57.207C364.293 57.5727 364.278 57.8663 364.264 58.126C364.252 58.3792 364.238 58.6229 364.251 58.8545C364.278 59.3649 364.426 59.7918 364.817 60.3711L364.948 60.5654L365.18 60.5889C369.144 60.9971 376.764 60.7412 380.976 60.7051L381.478 60.7002L381.472 60.1982L381.344 49.8047C387.897 49.6884 394.45 49.7081 401.003 49.8594L401.078 66.6299V71.9961C400.028 71.9875 398.466 71.9863 397.087 71.9893C396.274 71.991 395.522 71.9939 394.974 71.9961C394.701 71.9972 394.478 71.9983 394.323 71.999C394.246 71.9994 394.185 71.9998 394.144 72H394.082L393.585 72.0029V74.0195L393.586 74.0381C393.694 75.4461 393.616 77.7914 393.592 79.5117C386.6 79.6941 379.696 79.7635 372.792 79.8252C365.896 79.8868 359 79.9425 352.021 80.0977L351.932 74.1182V74.1055L351.871 72.5645L351.851 72.0557L351.343 72.085C349.135 72.2119 346.841 72.1477 344.578 72.1152L344.555 66.4658L344.566 8.96875L351.32 9.11914L351.83 9.13086L351.831 8.62109L351.853 0.619141Z" fill="url(#paint6_linear_261_1079)" stroke="black"/>
<path d="M351.432 74.125C364.435 74.4 381.118 74.3802 394.085 74L394.246 80.3452C394.246 80.3452 365.822 80.2804 351.529 80.608L351.432 74.125Z" fill="#1E6ABC"/>
<path d="M380.891 25.8525C387.754 25.9092 394.622 25.9172 401.489 25.8768L401.558 32.2143C394.743 32.101 387.726 32.1819 380.899 32.1819L380.891 25.8525Z" fill="#1E6ABC"/>
<path d="M364.681 13.8691L380.944 13.8853L380.919 20.2511C375.654 20.2268 370.226 20.2672 364.973 20.1459L364.981 43.8012C364.977 47.6231 365.13 53.548 364.791 57.2041C364.451 43.0206 364.706 28.1294 364.681 13.8691Z" fill="#1E6ABC"/>
<path d="M344.055 66.4655L351.461 66.3887L351.372 72.5846C348.981 72.7221 346.486 72.6372 344.08 72.6089L344.055 66.4655Z" fill="#1E6ABC"/>
<path d="M394.085 66.5L401.578 66.6276V72.5C399.596 72.4717 394.085 72.5 394.085 72.5C394.085 72.5 394.085 68.4008 394.085 66.5Z" fill="#1E6ABC"/>
<path d="M599.374 0.563477C599.614 3.41421 599.618 6.67993 599.568 9.98535C599.519 13.2688 599.422 16.5965 599.469 19.5508C587.782 19.8288 574.049 19.7956 562.366 19.5645L561.856 19.5537V20.0645L561.86 30.248V30.751L562.364 30.7471C569.11 30.6996 576.069 30.5664 582.788 30.7217L582.826 37.2637V37.2744L582.827 37.2852C583.045 41.6524 582.777 45.4762 582.757 49.79L562.369 49.7832H561.866L561.868 50.2852L561.957 74.1914V74.1963L562.034 79.7988C555.369 80.0184 548.701 80.0796 542.032 79.9795C541.981 78.0954 541.99 76.0826 541.972 74.1924V74.1807L541.932 72.8184C541.756 65.9442 541.919 58.1752 541.915 51.3301L541.879 8.33301L547.049 8.33008L547.548 8.3291L547.549 7.83008L547.556 0.5L599.374 0.563477Z" fill="url(#paint7_linear_261_1079)" stroke="black"/>
<path d="M583.349 44L583.253 50.2912L562.368 50.2831L562.376 44.0872L583.349 44Z" fill="#1E6ABC"/>
<path d="M541.471 74.1967C548.464 74.132 555.461 74.1279 562.457 74.1886L562.542 80.2834C555.546 80.522 548.545 80.5867 541.544 80.4735C541.475 78.4473 541.492 76.235 541.471 74.1967Z" fill="#1E6ABC"/>
<path d="M625.358 19.5996L624.87 19.5879C619.513 19.4661 614.013 19.5717 608.653 19.6299L608.594 13.832L608.61 0.5L661.973 0.535156C661.997 4.91433 662.08 9.49974 661.995 13.8174V13.8213L661.919 19.5352C656.564 19.7325 651.201 19.6932 645.85 19.4111L645.324 19.3828V19.9102L645.332 74.1084V74.1113L645.365 79.9639C638.759 79.8807 632.158 79.8304 625.552 79.8135C625.421 77.9871 625.397 75.9131 625.333 74.0635L625.358 20.0879V19.5996Z" fill="url(#paint8_linear_261_1079)" stroke="black"/>
<path d="M624.834 74.0635L645.832 74.108L645.869 80.4697C638.941 80.3808 632.017 80.3282 625.089 80.312C624.923 78.3586 624.903 76.0533 624.834 74.0635Z" fill="#1E6ABC"/>
<path d="M298.881 19.5996L298.393 19.5879C293.036 19.4661 287.536 19.5717 282.176 19.6299L282.117 13.832L282.133 0.5L335.496 0.535156C335.521 4.91433 335.603 9.49974 335.518 13.8174V13.8213L335.443 19.5352C330.087 19.7325 324.724 19.6932 319.373 19.4111L318.847 19.3828V19.9102L318.855 74.1084V74.1113L318.888 79.9639C312.282 79.8807 305.681 79.8304 299.075 79.8135C298.944 77.9871 298.92 75.9131 298.857 74.0635L298.881 20.0879V19.5996Z" fill="url(#paint9_linear_261_1079)" stroke="black"/>
<path d="M298.357 74.0635L319.355 74.108L319.392 80.4697C312.464 80.3808 305.54 80.3282 298.612 80.312C298.446 78.3586 298.426 76.0533 298.357 74.0635Z" fill="#1E6ABC"/>
<defs>
<linearGradient id="paint0_linear_261_1079" x1="35.7732" y1="0" x2="35.7732" y2="93.4561" gradientUnits="userSpaceOnUse">
<stop offset="0.15" stop-color="#E6FCFC"/>
<stop offset="0.3" stop-color="#A9F5F5"/>
<stop offset="0.403846" stop-color="#93F2F1"/>
<stop offset="0.5" stop-color="#64EBF0"/>
<stop offset="0.75" stop-color="#1FDBDF"/>
</linearGradient>
<linearGradient id="paint1_linear_261_1079" x1="242.737" y1="0" x2="242.737" y2="80.5527" gradientUnits="userSpaceOnUse">
<stop offset="0.15" stop-color="#E4FCFC"/>
<stop offset="0.3" stop-color="#A9F5F5"/>
<stop offset="0.4" stop-color="#93F2F1"/>
<stop offset="0.5" stop-color="#64EBF0"/>
<stop offset="0.75" stop-color="#1FDBDF"/>
</linearGradient>
<linearGradient id="paint2_linear_261_1079" x1="504.293" y1="0" x2="504.293" y2="80.4844" gradientUnits="userSpaceOnUse">
<stop offset="0.15" stop-color="#E8FDFD"/>
<stop offset="0.3" stop-color="#A9F5F5"/>
<stop offset="0.4" stop-color="#93F2F1"/>
<stop offset="0.5" stop-color="#64EBF0"/>
<stop offset="0.75" stop-color="#1FDBDF"/>
</linearGradient>
<linearGradient id="paint3_linear_261_1079" x1="174.8" y1="0" x2="174.8" y2="80.4844" gradientUnits="userSpaceOnUse">
<stop offset="0.15" stop-color="#E8FDFD"/>
<stop offset="0.3" stop-color="#A9F5F5"/>
<stop offset="0.4" stop-color="#93F2F1"/>
<stop offset="0.5" stop-color="#64EBF0"/>
<stop offset="0.75" stop-color="#1FDBDF"/>
</linearGradient>
<linearGradient id="paint4_linear_261_1079" x1="438.407" y1="0" x2="438.407" y2="80.506" gradientUnits="userSpaceOnUse">
<stop offset="0.15" stop-color="#EAFDFD"/>
<stop offset="0.3" stop-color="#A9F5F5"/>
<stop offset="0.4" stop-color="#93F2F1"/>
<stop offset="0.5" stop-color="#64EBF0"/>
<stop offset="0.75" stop-color="#1FDBDF"/>
</linearGradient>
<linearGradient id="paint5_linear_261_1079" x1="108.645" y1="0" x2="108.645" y2="80.652" gradientUnits="userSpaceOnUse">
<stop offset="0.15" stop-color="#E6FCFC"/>
<stop offset="0.3" stop-color="#A9F5F5"/>
<stop offset="0.4" stop-color="#93F2F1"/>
<stop offset="0.5" stop-color="#64EBF0"/>
<stop offset="0.75" stop-color="#1FDBDF"/>
</linearGradient>
<linearGradient id="paint6_linear_261_1079" x1="372.892" y1="0" x2="372.892" y2="80.6084" gradientUnits="userSpaceOnUse">
<stop offset="0.15" stop-color="#ECFDFD"/>
<stop offset="0.3" stop-color="#A9F5F5"/>
<stop offset="0.4" stop-color="#93F2F1"/>
<stop offset="0.5" stop-color="#64EBF0"/>
<stop offset="0.75" stop-color="#1FDBDF"/>
</linearGradient>
<linearGradient id="paint7_linear_261_1079" x1="570.722" y1="0" x2="570.722" y2="80.5282" gradientUnits="userSpaceOnUse">
<stop offset="0.15" stop-color="#EEFDFD"/>
<stop offset="0.3" stop-color="#A9F5F5"/>
<stop offset="0.4" stop-color="#93F2F1"/>
<stop offset="0.5" stop-color="#64EBF0"/>
<stop offset="0.75" stop-color="#1FDBDF"/>
</linearGradient>
<linearGradient id="paint8_linear_261_1079" x1="635.313" y1="0" x2="635.313" y2="80.47" gradientUnits="userSpaceOnUse">
<stop offset="0.15" stop-color="#F0FDFD"/>
<stop offset="0.3" stop-color="#A9F5F5"/>
<stop offset="0.4" stop-color="#93F2F1"/>
<stop offset="0.5" stop-color="#64EBF0"/>
<stop offset="0.75" stop-color="#1FDBDF"/>
</linearGradient>
<linearGradient id="paint9_linear_261_1079" x1="308.836" y1="0" x2="308.836" y2="80.47" gradientUnits="userSpaceOnUse">
<stop offset="0.15" stop-color="#F0FDFD"/>
<stop offset="0.3" stop-color="#A9F5F5"/>
<stop offset="0.4" stop-color="#93F2F1"/>
<stop offset="0.5" stop-color="#64EBF0"/>
<stop offset="0.75" stop-color="#1FDBDF"/>
</linearGradient>
</defs>
</svg>
